<svg width="210" height="50" viewBox="0 0 210 50" fill="none" xmlns="http://www.w3.org/2000/svg">
<g clip-path="url(#clip0_1_4986)" filter="url(#filter0_d_1_4986)">
<path d="M62.4215 8.06098H58.1V19.1335H57.028V8.06098H52.7065V7.20681H62.4215V8.06098ZM65.2355 11.794C65.5705 11.2562 66.006 10.8449 66.542 10.5602C67.078 10.2755 67.6475 10.1173 68.284 10.1173C69.289 10.1173 70.026 10.402 70.5285 10.9082C71.031 11.4144 71.2655 12.2369 71.2655 13.3125V19.1335H70.227V13.3125C70.227 12.5216 70.0595 11.9206 69.691 11.5409C69.356 11.1613 68.7865 10.9715 68.016 10.9715C67.3795 10.9715 66.81 11.1613 66.3075 11.5409C65.805 11.9206 65.4365 12.4267 65.202 13.0911V19.1652H64.197V6.5741H65.2355V11.794ZM77.597 19.2917C76.793 19.2917 76.0895 19.1019 75.4195 18.7222C74.783 18.3426 74.2805 17.8364 73.912 17.1721C73.5435 16.5077 73.376 15.7801 73.376 14.9259V14.578C73.376 13.7238 73.5435 12.9645 73.912 12.2685C74.247 11.5726 74.7495 11.0664 75.386 10.6551C76.0225 10.2755 76.6925 10.054 77.4295 10.054C78.5685 10.054 79.473 10.4337 80.143 11.1613C80.813 11.8889 81.148 12.9013 81.148 14.1667V14.7045H74.448V14.8943C74.448 15.9067 74.7495 16.7292 75.3525 17.3935C75.9555 18.0579 76.726 18.4059 77.664 18.4059C78.2335 18.4059 78.7025 18.311 79.138 18.1212C79.5735 17.9314 79.942 17.615 80.3105 17.2037L80.947 17.6783C80.143 18.7855 79.0375 19.2917 77.597 19.2917ZM77.396 10.9398C76.6255 10.9398 75.9555 11.2246 75.4195 11.7624C74.8835 12.3002 74.5485 13.0278 74.448 13.9452H80.076V13.8503C80.0425 12.9962 79.7745 12.3002 79.3055 11.7624C78.8365 11.2246 78.2 10.9398 77.396 10.9398ZM56.224 30.5857V35.2678H53.343V22.0124H58.8035C59.8755 22.0124 60.78 22.2022 61.584 22.5502C62.388 22.9298 62.991 23.436 63.4265 24.1003C63.862 24.7647 64.063 25.5239 64.063 26.3781C64.063 27.6752 63.594 28.6875 62.656 29.4468C61.718 30.206 60.4115 30.5857 58.7365 30.5857H56.224ZM56.224 28.3712H58.8035C59.574 28.3712 60.1435 28.213 60.5455 27.865C60.9475 27.517 61.1485 27.0425 61.1485 26.4097C61.1485 25.7454 60.9475 25.2392 60.5455 24.828C60.1435 24.4167 59.574 24.2269 58.8705 24.1952H56.224V28.3712ZM74.515 29.5101H68.954V33.0849H75.453V35.2678H66.0395V22.0124H75.4195V24.2269H68.9205V27.3905H74.4815L74.515 29.5101ZM88.585 35.2678H85.704L80.076 26.5363V35.2678H77.195V22.0124H80.076L85.704 30.7439V22.0124H88.585V35.2678ZM102.521 35.2678H99.64L94.012 26.5363V35.2678H91.131V22.0124H94.012L99.64 30.7439V22.0124H102.521V35.2678ZM109.623 27.9915L112.537 22.0124H115.687L111.097 30.4591V35.2678H108.149V30.4591L103.559 22.0124H106.742L109.623 27.9915ZM129.891 35.2678H128.685V28.909H120.678V35.2678H119.472V22.0124H120.644V27.9599H128.651V22.0124H129.857V35.2678H129.891ZM143.793 29.3519C143.793 30.554 143.559 31.6297 143.123 32.5787C142.688 33.4962 142.051 34.2238 141.214 34.6983C140.376 35.2045 139.438 35.4576 138.332 35.4576C136.691 35.4576 135.384 34.8881 134.346 33.8125C133.341 32.7053 132.839 31.2184 132.839 29.3202V27.9599C132.839 26.7577 133.073 25.6821 133.508 24.7647C133.944 23.8472 134.614 23.1196 135.418 22.6135C136.256 22.1073 137.194 21.8542 138.266 21.8542C139.338 21.8542 140.309 22.1073 141.113 22.5818C141.917 23.0564 142.587 23.7523 143.022 24.6698C143.458 25.5556 143.693 26.5996 143.726 27.8017L143.793 29.3519ZM142.621 27.9283C142.621 26.3465 142.252 25.081 141.481 24.1636C140.711 23.2462 139.672 22.8033 138.332 22.8033C137.026 22.8033 135.988 23.2462 135.217 24.1636C134.447 25.081 134.045 26.3465 134.045 27.9599V29.3519C134.045 30.9337 134.447 32.1675 135.217 33.0849C135.988 34.0023 137.026 34.4769 138.366 34.4769C139.706 34.4769 140.744 34.034 141.515 33.1165C142.252 32.1991 142.654 30.9337 142.654 29.3202V27.9283H142.621ZM154.178 31.5347H147.813L146.372 35.2678H145.133L150.459 22.0124H151.599L156.925 35.2678H155.686L154.178 31.5347ZM148.182 30.5857H153.81L150.996 23.3727L148.182 30.5857ZM164.161 29.7315H160.074V35.2678H158.868V22.0124H163.424C164.932 22.0124 166.104 22.3604 166.942 23.0564C167.779 23.7523 168.215 24.7014 168.215 25.9352C168.215 26.7894 167.946 27.517 167.41 28.1814C166.874 28.8141 166.171 29.2886 165.3 29.5417L168.817 35.1729V35.2994H167.545L164.161 29.7315ZM160.074 28.7824H163.692C164.697 28.7824 165.501 28.4977 166.104 27.9915C166.707 27.4854 167.009 26.7577 167.009 25.9036C167.009 24.9545 166.707 24.2269 166.071 23.7207C165.434 23.2145 164.563 22.9298 163.424 22.9298H160.074V28.7824ZM171.464 35.2678V22.0124H175.384C176.523 22.0124 177.561 22.2655 178.465 22.7716C179.37 23.2778 180.107 23.9738 180.61 24.8912C181.112 25.8087 181.38 26.8526 181.38 28.0548V29.257C181.38 30.4275 181.112 31.5031 180.61 32.4206C180.107 33.338 179.403 34.034 178.465 34.5401C177.527 35.0463 176.489 35.2994 175.283 35.2994L171.464 35.2678ZM172.637 22.9615V34.3187H175.283C176.757 34.3187 177.963 33.8442 178.834 32.9267C179.739 32.0093 180.174 30.7439 180.174 29.1621V27.9915C180.174 26.473 179.739 25.2392 178.868 24.3218C177.996 23.4043 176.824 22.9298 175.384 22.9298L172.637 22.9615ZM192.134 28.909H185.568V34.3187H193.105V35.2678H184.362V22.0124H193.038V22.9615H185.534V27.9599H192.1V28.909H192.134ZM200.844 29.7315H196.757V35.2678H195.55V22.0124H200.107C201.614 22.0124 202.787 22.3604 203.624 23.0564C204.462 23.7523 204.897 24.7014 204.897 25.9352C204.897 26.7894 204.629 27.517 204.093 28.1814C203.557 28.8141 202.854 29.2886 201.982 29.5417L205.5 35.1729V35.2994H204.227L200.844 29.7315ZM196.757 28.7824H200.375C201.38 28.7824 202.184 28.4977 202.787 27.9915C203.39 27.4854 203.691 26.7577 203.691 25.9036C203.691 24.9545 203.389 24.2269 202.753 23.7207C202.117 23.2145 201.246 22.9298 200.107 22.9298H196.757V28.7824Z" fill="#424653"/>
<path d="M26.208 0.5C14.215 0.5 4.5 9.67438 4.5 21C4.5 32.3256 14.215 41.5 26.208 41.5C38.201 41.5 47.916 32.3256 47.916 21C47.916 9.67438 38.201 0.5 26.208 0.5ZM36.794 31.4082C36.459 31.6929 29.9935 35.6474 26.208 35.1096C22.456 34.5401 19.508 33.9707 18.57 33.3696C17.632 32.7685 15.153 30.6489 15.153 30.6489C15.153 30.6489 15.019 29.162 15.9905 27.7068C16.962 26.2199 17.0625 25.8086 17.3975 25.2076C17.7325 24.6065 18.0675 24.1636 18.57 23.3727C19.039 22.5818 20.4795 20.8102 20.4795 20.8102C20.4795 20.8102 20.8815 19.6713 21.0155 19.3866C21.1495 19.1019 21.3505 19.1968 20.781 18.6906C20.178 18.1844 19.039 15.8434 19.039 15.179C19.039 14.5463 18.101 11.0664 18.704 10.2122C19.2735 9.32638 20.0775 8.37732 20.714 7.93441C21.3505 7.52315 21.719 6.82715 22.0875 6.54243C22.4225 6.25771 22.8245 6.35262 23.0255 6.32099C23.2265 6.25772 24.332 5.7199 24.6 5.81481C24.8345 5.90972 25.1025 5.625 25.6385 5.81481C26.1745 6.00463 26.342 6.28935 26.7105 6.28935C27.0455 6.28935 27.481 6.00463 27.9835 6.19445C28.486 6.38426 28.5865 6.66898 28.8545 6.73225C29.156 6.82716 28.9885 6.82716 29.625 6.9537C30.2615 7.08025 30.7975 7.23842 30.9985 7.55478C31.1995 7.87114 31.635 8.1875 31.635 8.69367C31.635 9.19985 31.0655 9.57947 30.9985 9.76929C30.965 9.9591 31.6685 11.1929 31.635 11.3827C31.6015 11.5725 32.0705 12.2052 31.97 12.3951C31.8695 12.5849 31.6685 12.7747 31.769 13.2176C31.8695 13.6921 33.176 15.4321 33.176 15.6219C33.176 15.8117 33.377 16.0332 33.176 16.1281C32.975 16.223 32.3385 16.3179 32.2045 16.3179C32.0705 16.3179 31.97 16.3179 31.97 16.6026C31.97 16.8873 32.0705 17.0139 32.0035 17.2986C31.97 17.5833 31.903 17.9313 31.702 17.9946L31.836 18.9437C32.037 19.2284 32.439 19.26 32.372 19.8295C32.305 20.4306 32.6735 20.0509 32.305 20.4306C31.97 20.8102 31.97 20.6204 31.6685 20.9367C31.367 21.2531 30.9985 21.0633 30.5295 21.0633C30.094 21.0633 29.8595 20.9367 29.6585 21.2531C29.4575 21.5694 29.625 21.4429 29.424 21.7593C29.223 22.0756 28.687 21.9807 28.7875 22.3603C28.888 22.74 29.223 23.088 29.558 23.2461C29.893 23.3727 30.63 23.8789 30.5965 24.0687C30.563 24.2585 30.3955 24.4483 30.3955 24.5748C30.3955 24.7014 36.526 30.3009 37.0285 30.6489C37.531 30.9969 37.129 31.1235 36.794 31.4082Z" fill="#424653"/>
</g>
<defs>
<filter id="filter0_d_1_4986" x="0" y="0" width="210" height="50" filterUnits="userSpaceOnUse" color-interpolation-filters="sRGB">
<feFlood flood-opacity="0" result="BackgroundImageFix"/>
<feColorMatrix in="SourceAlpha" type="matrix" values="0 0 0 0 0 0 0 0 0 0 0 0 0 0 0 0 0 0 127 0" result="hardAlpha"/>
<feOffset dy="4"/>
<feGaussianBlur stdDeviation="2"/>
<feComposite in2="hardAlpha" operator="out"/>
<feColorMatrix type="matrix" values="0 0 0 0 0 0 0 0 0 0 0 0 0 0 0 0 0 0 0.25 0"/>
<feBlend mode="normal" in2="BackgroundImageFix" result="effect1_dropShadow_1_4986"/>
<feBlend mode="normal" in="SourceGraphic" in2="effect1_dropShadow_1_4986" result="shape"/>
</filter>
<clipPath id="clip0_1_4986">
<rect width="202" height="42" fill="white" transform="translate(4)"/>
</clipPath>
</defs>
</svg>
